<svg width="36" height="37" viewBox="0 0 36 37" fill="none" xmlns="http://www.w3.org/2000/svg">
<g id="discord">
<g id="Vector">
<path d="M14.3895 17.2631C13.5765 17.2631 12.936 17.9756 12.936 18.8456C12.936 19.7126 13.5915 20.4281 14.3895 20.4281C15.201 20.4281 15.8415 19.7126 15.8415 18.8456C15.858 17.9741 15.201 17.2631 14.3895 17.2631ZM19.5915 17.2631C18.7785 17.2631 18.138 17.9756 18.138 18.8456C18.138 19.7126 18.7935 20.4281 19.5915 20.4281C20.403 20.4281 21.0435 19.7126 21.0435 18.8456C21.042 17.9741 20.403 17.2631 19.5915 17.2631Z" fill="black"/>
<path d="M26.517 5.30664H7.42051C7.036 5.30762 6.65545 5.38433 6.30058 5.53239C5.94572 5.68044 5.62349 5.89695 5.35229 6.16953C5.0811 6.44212 4.86625 6.76545 4.72002 7.12107C4.57378 7.47669 4.49902 7.85763 4.50001 8.24214V27.5081C4.50001 29.1326 5.81101 30.4436 7.42051 30.4436H23.58L22.8225 27.8051L24.648 29.5016L26.3715 31.0976L29.4375 33.8066V8.24214C29.4385 7.85763 29.3637 7.47669 29.2175 7.12107C29.0713 6.76545 28.8564 6.44212 28.5852 6.16953C28.314 5.89695 27.9918 5.68044 27.6369 5.53239C27.2821 5.38433 26.9015 5.30762 26.517 5.30664ZM21.015 23.9171C21.015 23.9171 20.502 23.3051 20.076 22.7606C21.942 22.2326 22.6545 21.0656 22.6545 21.0656C22.0695 21.4496 21.5145 21.7226 21.015 21.9086C19.1965 22.6697 17.194 22.8774 15.258 22.5056C14.5427 22.3651 13.8417 22.1593 13.164 21.8906C12.8066 21.7549 12.4592 21.594 12.1245 21.4091C12.081 21.3776 12.039 21.3656 11.997 21.3371C11.9745 21.3265 11.9546 21.3111 11.9385 21.2921C11.682 21.1511 11.5395 21.0521 11.5395 21.0521C11.5395 21.0521 12.2235 22.1921 14.034 22.7336C13.6065 23.2736 13.0785 23.9171 13.0785 23.9171C9.93001 23.8166 8.73451 21.7511 8.73451 21.7511C8.73451 17.1626 10.7865 13.4441 10.7865 13.4441C12.8385 11.9036 14.79 11.9471 14.79 11.9471L14.9325 12.1181C12.3675 12.8606 11.184 13.9856 11.184 13.9856C11.184 13.9856 11.499 13.8146 12.0255 13.5731C13.5495 12.9041 14.76 12.7181 15.2595 12.6746C15.345 12.6611 15.417 12.6461 15.5025 12.6461C17.9733 12.3132 20.4857 12.7827 22.6695 13.9856C22.6695 13.9856 21.543 12.9176 19.1205 12.1766L19.32 11.9486C19.32 11.9486 21.273 11.9051 23.3235 13.4456C23.3235 13.4456 25.3755 17.1641 25.3755 21.7526C25.3755 21.7526 24.165 23.8166 21.015 23.9171Z" fill="black"/>
</g>
</g>
</svg>
