<svg width="36" height="37" viewBox="0 0 36 37" fill="none" xmlns="http://www.w3.org/2000/svg">
<g id="facebook">
<path id="Vector" d="M30 5.30664H6C5.60218 5.30664 5.22064 5.46468 4.93934 5.74598C4.65804 6.02728 4.5 6.40882 4.5 6.80664V30.8066C4.5 31.2045 4.65804 31.586 4.93934 31.8673C5.22064 32.1486 5.60218 32.3066 6 32.3066H18.9225V21.8666H15.4155V17.7791H18.9225V14.7791C18.9225 11.2916 21.0525 9.39114 24.1725 9.39114C25.221 9.38814 26.271 9.44214 27.315 9.55164V13.1816H25.1625C23.4705 13.1816 23.1405 13.9886 23.1405 15.1691V17.7716H27.186L26.661 21.8591H23.139V32.3066H30C30.3978 32.3066 30.7794 32.1486 31.0607 31.8673C31.342 31.586 31.5 31.2045 31.5 30.8066V6.80664C31.5 6.40882 31.342 6.02728 31.0607 5.74598C30.7794 5.46468 30.3978 5.30664 30 5.30664Z" fill="black"/>
</g>
</svg>
