<svg width="36" height="37" viewBox="0 0 36 37" fill="none" xmlns="http://www.w3.org/2000/svg">
<g id="dribbble">
<path id="Vector" d="M30.99 11.2766C29.6811 9.00823 27.7973 7.12496 25.5285 5.81664C23.229 4.47714 20.7195 3.80664 18 3.80664C15.2805 3.80664 12.771 4.47714 10.47 5.81664C8.1705 7.15614 6.3495 8.97714 5.01 11.2766C3.6705 13.5761 3 16.0871 3 18.8066C3 21.5261 3.669 24.0371 5.01 26.3366C6.31848 28.6054 8.20238 30.4888 10.4715 31.7966C12.771 33.1361 15.2805 33.8066 18 33.8066C20.7195 33.8066 23.229 33.1361 25.53 31.7966C27.7988 30.4883 29.6826 28.6051 30.9915 26.3366C32.331 24.0371 33 21.5261 33 18.8066C33 16.0871 32.331 13.5761 30.99 11.2766ZM18 6.29664C21 6.29664 23.658 7.25664 25.98 9.17514C24.6 10.9361 22.551 12.3851 19.83 13.5251C18.327 10.8056 16.698 8.53464 14.9385 6.71514C15.9357 6.43941 16.9654 6.29866 18 6.29664ZM8.265 11.0066C9.36186 9.61378 10.7497 8.4773 12.3315 7.67664C14.1495 9.47814 15.819 11.7266 17.3415 14.4266C14.3415 15.3266 11.1705 15.7766 7.83 15.7766C6.9705 15.7766 6.321 15.7571 5.88 15.7166C6.33971 13.9982 7.15192 12.3942 8.265 11.0066ZM5.49 18.8066C5.49 18.7256 5.4945 18.6266 5.505 18.5066C5.5155 18.3866 5.52 18.2876 5.52 18.2066C5.901 18.2276 6.4815 18.2366 7.2615 18.2366C11.2605 18.2366 14.9805 17.6861 18.42 16.5866C18.7005 17.1461 18.9915 17.7761 19.29 18.4766C17.31 18.9161 15.279 19.9856 13.1985 21.6866C11.118 23.3876 9.6 25.1771 8.64 27.0566C6.54 24.6761 5.49 21.9266 5.49 18.8066ZM18 31.3166C15.159 31.3166 12.609 30.4361 10.3485 28.6781C11.25 26.8976 12.6345 25.1951 14.505 23.5766C16.374 21.9566 18.2295 20.9471 20.07 20.5466C21.231 23.7551 22.0162 27.0874 22.41 30.4766C21.0043 31.0259 19.5092 31.3107 18 31.3166ZM28.62 25.3766C27.6382 26.9584 26.3161 28.3015 24.75 29.3081C24.39 26.1881 23.7 23.1476 22.6815 20.1866C24.0795 20.0876 25.329 20.0366 26.4315 20.0366C27.63 20.0366 28.9605 20.0876 30.42 20.1866C30.2242 22.0314 29.6084 23.8068 28.62 25.3766ZM26.76 17.8766C25.02 17.8766 23.4105 17.9471 21.93 18.0866C21.6164 17.2658 21.2762 16.4554 20.91 15.6566C24.009 14.2976 26.208 12.6476 27.5085 10.7066C29.3085 12.8276 30.2895 15.2471 30.4485 17.9666C29.2305 17.9066 28.0005 17.8766 26.76 17.8766Z" fill="black"/>
</g>
</svg>
