<svg width="36" height="37" viewBox="0 0 36 37" fill="none" xmlns="http://www.w3.org/2000/svg">
<g id="behance">
<path id="Vector" d="M11.7045 9.40234C12.588 9.40234 13.383 9.47884 14.112 9.63484C14.8365 9.78934 15.4545 10.0443 15.9765 10.3968C16.491 10.7493 16.893 11.2173 17.1825 11.8053C17.463 12.3858 17.6025 13.1118 17.6025 13.9698C17.6025 14.8998 17.3925 15.6768 16.971 16.2963C16.5465 16.9173 15.921 17.4258 15.087 17.8188C16.2225 18.1473 17.064 18.7218 17.622 19.5378C18.183 20.3613 18.4575 21.3468 18.4575 22.5018C18.4575 23.4393 18.279 24.2448 17.9205 24.9213C17.575 25.5878 17.0738 26.161 16.4595 26.5923C15.8232 27.0355 15.1124 27.3606 14.361 27.5523C13.5732 27.7591 12.762 27.863 11.9475 27.8613H3V9.40234H11.7045ZM11.178 16.8603C11.898 16.8603 12.495 16.6893 12.966 16.3428C13.434 16.0008 13.6605 15.4368 13.6605 14.6643C13.6605 14.2353 13.584 13.8813 13.434 13.6038C13.2879 13.3369 13.0716 13.1149 12.8085 12.9618C12.5331 12.7985 12.2292 12.6891 11.913 12.6393C11.5683 12.5751 11.2181 12.5444 10.8675 12.5478H7.065V16.8603H11.178ZM11.4045 24.7188C11.805 24.7188 12.186 24.6843 12.5445 24.6033C12.906 24.5253 13.227 24.3993 13.5 24.2118C13.773 24.0318 13.998 23.7873 14.16 23.4753C14.3235 23.1663 14.403 22.7628 14.403 22.2783C14.403 21.3273 14.1345 20.6508 13.6035 20.2413C13.071 19.8363 12.357 19.6353 11.4825 19.6353H7.065V24.7203H11.4045V24.7188ZM24.252 24.6573C24.8025 25.1943 25.596 25.4643 26.628 25.4643C27.3675 25.4643 28.0065 25.2768 28.545 24.9048C29.076 24.5313 29.4 24.1323 29.5245 23.7198H32.757C32.238 25.3278 31.4505 26.4768 30.3735 27.1683C29.31 27.8628 28.0155 28.2078 26.5035 28.2078C25.4505 28.2078 24.5025 28.0383 23.6535 27.7023C22.8386 27.385 22.1022 26.8947 21.495 26.2653C20.8978 25.6213 20.4362 24.8638 20.1375 24.0378C19.8092 23.1245 19.6466 22.1599 19.6575 21.1893C19.6575 20.1903 19.824 19.2558 20.151 18.3933C20.4614 17.5596 20.9381 16.7977 21.552 16.1538C22.1595 15.5238 22.8795 15.0273 23.718 14.6628C24.5997 14.292 25.5485 14.1072 26.505 14.1198C27.636 14.1198 28.6245 14.3388 29.4735 14.7798C30.2968 15.2008 31.0107 15.8079 31.5585 16.5528C32.103 17.2923 32.4915 18.1398 32.733 19.0893C32.9745 20.0373 33.0585 21.0273 32.9895 22.0638H23.343C23.3445 23.1198 23.7 24.1203 24.252 24.6573ZM28.47 17.6358C28.0335 17.1528 27.2955 16.8918 26.3925 16.8918C25.806 16.8918 25.3215 16.9893 24.9315 17.1903C24.5749 17.3705 24.2585 17.621 24.0015 17.9268C23.7758 18.2045 23.6084 18.5249 23.5095 18.8688C23.423 19.1556 23.3672 19.4508 23.343 19.7493H29.316C29.229 18.8133 28.908 18.1218 28.47 17.6358ZM22.593 10.6413H30.0765V12.4638H22.593V10.6413Z" fill="black"/>
</g>
</svg>
