<svg width="36" height="37" viewBox="0 0 36 37" fill="none" xmlns="http://www.w3.org/2000/svg">
<g id="nstagram">
<g id="Vector">
<path d="M17.9955 11.8725C16.156 11.8725 14.3918 12.6032 13.091 13.904C11.7903 15.2047 11.0595 16.9689 11.0595 18.8085C11.0595 20.648 11.7903 22.4122 13.091 23.7129C14.3918 25.0137 16.156 25.7445 17.9955 25.7445C19.835 25.7445 21.5992 25.0137 22.9 23.7129C24.2007 22.4122 24.9315 20.648 24.9315 18.8085C24.9315 16.9689 24.2007 15.2047 22.9 13.904C21.5992 12.6032 19.835 11.8725 17.9955 11.8725ZM17.9955 23.313C16.8004 23.313 15.6543 22.8382 14.8093 21.9932C13.9642 21.1481 13.4895 20.002 13.4895 18.807C13.4895 17.6119 13.9642 16.4658 14.8093 15.6207C15.6543 14.7757 16.8004 14.301 17.9955 14.301C19.1906 14.301 20.3367 14.7757 21.1817 15.6207C22.0268 16.4658 22.5015 17.6119 22.5015 18.807C22.5015 20.002 22.0268 21.1481 21.1817 21.9932C20.3367 22.8382 19.1906 23.313 17.9955 23.313Z" fill="black"/>
<path d="M25.206 13.2345C26.099 13.2345 26.823 12.5105 26.823 11.6175C26.823 10.7244 26.099 10.0005 25.206 10.0005C24.313 10.0005 23.589 10.7244 23.589 11.6175C23.589 12.5105 24.313 13.2345 25.206 13.2345Z" fill="black"/>
<path d="M30.7965 9.97345C30.4493 9.07672 29.9186 8.26238 29.2385 7.58254C28.5584 6.90271 27.7439 6.37236 26.847 6.02545C25.7975 5.63149 24.6888 5.41846 23.568 5.39545C22.1235 5.33245 21.666 5.31445 18.003 5.31445C14.34 5.31445 13.8705 5.31445 12.438 5.39545C11.3181 5.41729 10.2101 5.63036 9.162 6.02545C8.2649 6.37196 7.45015 6.90216 6.77 7.58205C6.08986 8.26193 5.55934 9.07649 5.2125 9.97345C4.81846 11.0229 4.60592 12.1317 4.584 13.2525C4.5195 14.6955 4.5 15.153 4.5 18.8175C4.5 22.4805 4.5 22.947 4.584 24.3825C4.6065 25.5045 4.818 26.6115 5.2125 27.663C5.56032 28.5596 6.09134 29.3738 6.77165 30.0536C7.45196 30.7334 8.2666 31.2638 9.1635 31.611C10.2097 32.0207 11.3181 32.249 12.441 32.286C13.8855 32.349 14.343 32.3685 18.006 32.3685C21.669 32.3685 22.1385 32.3685 23.571 32.286C24.6917 32.2632 25.8003 32.0507 26.85 31.6575C27.7466 31.3097 28.5609 30.7789 29.241 30.0989C29.921 29.4189 30.4518 28.6046 30.7995 27.708C31.194 26.658 31.4055 25.551 31.428 24.429C31.4925 22.986 31.512 22.5285 31.512 18.864C31.512 15.1995 31.512 14.7345 31.428 13.299C31.4105 12.1624 31.1969 11.0373 30.7965 9.97345ZM28.9695 24.2715C28.9598 25.1359 28.802 25.9923 28.503 26.8035C28.2777 27.3868 27.9329 27.9165 27.4906 28.3585C27.0483 28.8005 26.5184 29.145 25.935 29.37C25.1328 29.6676 24.2855 29.8254 23.43 29.8365C22.005 29.9025 21.603 29.919 17.949 29.919C14.292 29.919 13.9185 29.919 12.4665 29.8365C11.6114 29.826 10.7645 29.6682 9.963 29.37C9.37753 29.1464 8.8455 28.8025 8.40134 28.3604C7.95717 27.9183 7.61075 27.3879 7.3845 26.8035C7.08967 26.001 6.93197 25.1547 6.918 24.3C6.8535 22.875 6.8385 22.473 6.8385 18.819C6.8385 15.1635 6.8385 14.79 6.918 13.3365C6.9277 12.4725 7.08548 11.6166 7.3845 10.806C7.842 9.62245 8.7795 8.69095 9.963 8.23795C10.7649 7.94116 11.6115 7.7834 12.4665 7.77145C13.893 7.70695 14.2935 7.68895 17.949 7.68895C21.6045 7.68895 21.9795 7.68895 23.43 7.77145C24.2856 7.78175 25.133 7.93956 25.935 8.23795C26.5184 8.46336 27.0482 8.80826 27.4905 9.2505C27.9327 9.69274 28.2776 10.2226 28.503 10.806C28.7978 11.6084 28.9555 12.4547 28.9695 13.3095C29.034 14.736 29.0505 15.1365 29.0505 18.792C29.0505 22.446 29.0505 22.839 28.986 24.273H28.9695V24.2715Z" fill="black"/>
</g>
</g>
</svg>
